# xmcd
#
# Track frame offsets:
# 150
# 17241
# 34304
# 50893
# 73448
# 94823
# 114700
# 127593
# 148043
#
# Disc length: 2171 seconds
#
#
# Revision: 0
# Processed by: cddbd v1.5.1PL2 Copyright (c) Steve Scherf et al.
# Submitted via: FreeRIP 2.944 
#
DISCID=88087909
DTITLE=Objetivo Jíbaro Peñolano - Aguinaldos, Décima ys Folclor
DYEAR=2005
DGENRE=Latin
TTITLE0=Amigo Que Nunca Falla
TTITLE1=No Debes La Droga Usar
TTITLE2=Por Los Derechos Humanos
TTITLE3=El Son De Los Trovadores
TTITLE4=Cadenas
TTITLE5=Rescatemos los Valores
TTITLE6=Seguiré Tus Huellas
TTITLE7=Co Cristo Todo Se Puede
TTITLE8=Un Cantar Un Amor
EXTD=
EXTT0=
EXTT1=
EXTT2=
EXTT3=
EXTT4=
EXTT5=
EXTT6=
EXTT7=
EXTT8=
PLAYORDER=
